<svg id="Camada_1" data-name="Camada 1" xmlns="http://www.w3.org/2000/svg" viewBox="0 0 373.72 540.07"><defs><style>.cls-1{fill:none;}.cls-1,.cls-2,.cls-4{stroke:#fff;stroke-miterlimit:10;stroke-width:2px;}.cls-1,.cls-2,.cls-5{stroke-linecap:round;}.cls-3{fill:#fff;}.cls-5{stroke:#000;stroke-width:3px;}</style></defs><title>ilu1</title><g id="Group_959" data-name="Group 959"><path id="Path_993" data-name="Path 993" class="cls-1" d="M319.85,239.11l17.91-44c3.82-9.26-.31-19-9.57-22.78l-18.54-7.5-32.37-13.21-18.54-7.5c-9.26-3.81-19,.32-22.79,9.58l-15,37.08h0l-11.31,27.8,18.54,7.5-22.6,55.47a17.61,17.61,0,0,0,9.58,22.79L253,319.68c58,26.74,81.55,97.91,57.38,157.22-26.08,64-98.1,93.12-161.36,67.37S54.44,447.44,80.52,383.44" transform="translate(-5.6 -14.54)"/><path id="Path_994" data-name="Path 994" class="cls-1" d="M296.46,261a20.11,20.11,0,0,0,10.11,10.47c9.26,3.82,19.86-.09,23.53-9.24s-1.18-19.33-10.32-23.12a14.88,14.88,0,0,0-13.74.74" transform="translate(-5.6 -14.54)"/><path id="Path_995" data-name="Path 995" class="cls-1" d="M53,282.53c-9.51,3.38-13.86,14.13-9.73,23.85,3.37,9.5,14.13,13.86,23.84,9.73,9-4.46,13.33-15.22,9.73-23.84C72.72,282.43,62,278.07,53,282.53Z" transform="translate(-5.6 -14.54)"/><path id="Path_996" data-name="Path 996" class="cls-1" d="M56.5,265.14a39,39,0,0,0-8.36,2.33c-12.33,5.66-21.14,17.11-22,30.29" transform="translate(-5.6 -14.54)"/><path id="Path_997" data-name="Path 997" class="cls-1" d="M68.11,266.09C83.31,268.6,96,279.21,102,293.37a46.15,46.15,0,0,1,.17,35.07L80.58,383.51" transform="translate(-5.6 -14.54)"/><line id="Line_463" data-name="Line 463" class="cls-1" x1="58.59" y1="266.73" x2="62.12" y2="251.51"/><path id="Path_998" data-name="Path 998" class="cls-1" d="M49.76,266.76l-4.62-16.08A41,41,0,0,0,39.75,253C12.64,264.39-.57,296.76,10.54,324.6c6.33,13.3,17.17,24.11,30.28,29.36" transform="translate(-5.6 -14.54)"/><line id="Line_464" data-name="Line 464" class="cls-1" x1="50.89" y1="250.59" x2="52.45" y2="266.35"/><path id="Path_999" data-name="Path 999" class="cls-2" d="M347,195.68l9.58-23.6c4.2-10.51-.43-21.57-10.94-25.77l-21-8.53L288,123l-21-8.53c-10.51-4.2-21.57.43-25.77,10.94l-9.42,23.36h0" transform="translate(-5.6 -14.54)"/><line id="Line_465" data-name="Line 465" class="cls-1" x1="372.72" y1="193.85" x2="195.05" y2="121.5"/><line id="Line_466" data-name="Line 466" class="cls-1" x1="220.71" y1="215.64" x2="204.5" y2="255.68"/><circle id="Ellipse_153" data-name="Ellipse 153" class="cls-3" cx="255.1" cy="177.53" r="7.05"/><g id="Group_958" data-name="Group 958"><g id="Group_877" data-name="Group 877"><path id="Path_1000" data-name="Path 1000" class="cls-4" d="M175,106.82,77.79,69.52s-1.11,12.88,7.34,31.63,19.51,43.57,19.51,43.57,26.63-14.34,41.76-19.1S175,106.82,175,106.82Z" transform="translate(-5.6 -14.54)"/><path id="Path_1001" data-name="Path 1001" class="cls-2" d="M127,195a55.53,55.53,0,1,1-88.36-18.26" transform="translate(-5.6 -14.54)"/><path id="Path_1002" data-name="Path 1002" class="cls-1" d="M82.86,96c-.37-.83-.79-1.53-1.16-2.36A55.53,55.53,0,1,1,155,121.8h0" transform="translate(-5.6 -14.54)"/><path id="Path_1072" data-name="Path 1072" class="cls-5" d="M106.06,140l-41,106.85" transform="translate(-5.6 -14.54)"/><line id="Line_467" data-name="Line 467" class="cls-1" x1="121.72" y1="181.02" x2="75.62" y2="77.84"/><line id="Line_468" data-name="Line 468" class="cls-1" x1="68.42" y1="143.82" x2="149.57" y2="107.18"/></g></g></g></svg>